<?xml version="1.0" encoding="UTF-8" standalone="no"?>
<!-- Created with Inkscape (http://www.inkscape.org/) -->

<svg
   xmlns:dc="http://purl.org/dc/elements/1.1/"
   xmlns:cc="http://creativecommons.org/ns#"
   xmlns:rdf="http://www.w3.org/1999/02/22-rdf-syntax-ns#"
   xmlns:svg="http://www.w3.org/2000/svg"
   xmlns="http://www.w3.org/2000/svg"
   xmlns:sodipodi="http://sodipodi.sourceforge.net/DTD/sodipodi-0.dtd"
   xmlns:inkscape="http://www.inkscape.org/namespaces/inkscape"
   width="210mm"
   height="297mm"
   viewBox="0 0 210 297"
   version="1.1"
   id="svg8"
   inkscape:version="0.92.1 r15371"
   sodipodi:docname="reset.svg">
  <defs
     id="defs2" />
  <sodipodi:namedview
     id="base"
     pagecolor="#ffffff"
     bordercolor="#666666"
     borderopacity="1.0"
     inkscape:pageopacity="0.0"
     inkscape:pageshadow="2"
     inkscape:zoom="0.24748737"
     inkscape:cx="-218.00462"
     inkscape:cy="1045.6364"
     inkscape:document-units="mm"
     inkscape:current-layer="layer1"
     showgrid="false"
     inkscape:window-width="1920"
     inkscape:window-height="1017"
     inkscape:window-x="-8"
     inkscape:window-y="-8"
     inkscape:window-maximized="1" />
  <metadata
     id="metadata5">
    <rdf:RDF>
      <cc:Work
         rdf:about="">
        <dc:format>image/svg+xml</dc:format>
        <dc:type
           rdf:resource="http://purl.org/dc/dcmitype/StillImage" />
        <dc:title />
      </cc:Work>
    </rdf:RDF>
  </metadata>
  <g
     inkscape:label="Layer 1"
     inkscape:groupmode="layer"
     id="layer1">
    <path
       style="fill:#ffffff;fill-opacity:1;stroke-width:0.41155612"
       d="M 113.03072,188.31898 C 90.243517,185.15252 71.826817,172.16992 61.82543,152.22265 57.657112,143.909 55.620399,136.17846 54.829682,125.66932 l -0.208997,-2.77809 h 11.036057 11.036063 l 0.242875,3.80695 c 0.750987,11.77313 7.366412,23.74337 17.229137,31.17515 13.338223,10.05064 30.928913,11.78562 45.881253,4.5252 11.80122,-5.73043 20.16226,-15.90157 23.67996,-28.8068 1.29874,-4.7647 1.38811,-16.09243 0.1675,-21.19512 -1.64196,-6.86243 -5.7873,-14.549338 -10.71325,-19.866525 -7.15641,-7.724788 -18.17791,-13.05185 -28.78455,-13.912463 l -3.54506,-0.2875 v 11.58025 c 0,6.36905 -0.1,11.580108 -0.22625,11.580108 -0.2225,0 -39.174714,-31.936132 -40.647964,-33.326117 -0.714489,-0.673742 0.167875,-1.459858 19.694025,-17.540174 11.243129,-9.259144 20.608189,-16.896433 20.811299,-16.971806 0.2125,-0.075 0.37,4.768821 0.37,11.420618 V 56.63087 l 2.36649,0.0078 c 3.18432,0.0094 10.0125,1.007489 14.18695,2.072975 24.30896,6.20218 43.56025,26.641827 48.29331,51.274285 6.90894,35.95647 -16.36031,70.40494 -52.37676,77.53987 -5.02195,0.99498 -15.80558,1.4166 -20.28953,0.79373 z"
       id="path21"
       inkscape:connector-curvature="0" />
  </g>
</svg>
